<svg id="eOW8qNHZtR11" xmlns="http://www.w3.org/2000/svg" xmlns:xlink="http://www.w3.org/1999/xlink" viewBox="0 0 400 400" shape-rendering="geometricPrecision" text-rendering="geometricPrecision" project-id="b34b8df848a24e5faa8e4d0e568d881f" export-id="d107acff074648efa9eafa7ebe7bb2c2" cached="false">
<style><![CDATA[
#eOW8qNHZtR13_to {animation: eOW8qNHZtR13_to__to 2000ms linear infinite normal forwards}@keyframes eOW8qNHZtR13_to__to { 0% {transform: translate(197.796318px,275.099991px)} 100% {transform: translate(197.796318px,529.099991px)}} #eOW8qNHZtR143_to {animation: eOW8qNHZtR143_to__to 2000ms linear infinite normal forwards}@keyframes eOW8qNHZtR143_to__to { 0% {transform: translate(197.796318px,5.099991px)} 100% {transform: translate(197.796318px,275.1px)}}
]]></style>
<g mask="url(#eOW8qNHZtR183)"><g id="eOW8qNHZtR13_to" transform="translate(197.796318,275.099991)"><g transform="translate(-197.796318,-275.099991)"><circle r="8.6" transform="translate(127.4 156.4)" fill="none" stroke="#000" stroke-width="3.7" stroke-linecap="round" stroke-miterlimit="10"/><circle r="8.6" transform="matrix(.382683-.92388 0.92388 0.382683 127.429083 285.515419)" fill="none" stroke="#000" stroke-width="3.7" stroke-linecap="round" stroke-miterlimit="10"/><circle r="8.6" transform="translate(127.4 322.2)" fill="none" stroke="#000" stroke-width="3.7" stroke-linecap="round" stroke-miterlimit="10"/><circle r="8.6" transform="translate(151.3 156.4)" fill="none" stroke="#000" stroke-width="3.7" stroke-linecap="round" stroke-miterlimit="10"/><circle r="8.6" transform="translate(151.3 339.5)" fill="none" stroke="#000" stroke-width="3.7" stroke-linecap="round" stroke-miterlimit="10"/><circle r="8.6" transform="translate(175.2 156.4)" fill="none" stroke="#000" stroke-width="3.7" stroke-linecap="round" stroke-miterlimit="10"/><circle r="8.6" transform="translate(199.1 156.4)" fill="none" stroke="#000" stroke-width="3.7" stroke-linecap="round" stroke-miterlimit="10"/><circle r="8.6" transform="translate(199.1 287.5)" fill="none" stroke="#000" stroke-width="3.7" stroke-linecap="round" stroke-miterlimit="10"/><circle r="8.6" transform="translate(199.1 339.5)" fill="none" stroke="#000" stroke-width="3.7" stroke-linecap="round" stroke-miterlimit="10"/><circle r="8.6" transform="translate(223 156.4)" fill="none" stroke="#000" stroke-width="3.7" stroke-linecap="round" stroke-miterlimit="10"/><circle r="8.6" transform="translate(246.9 156.4)" fill="none" stroke="#000" stroke-width="3.7" stroke-linecap="round" stroke-miterlimit="10"/><circle r="8.6" transform="translate(246.9 285.4)" fill="none" stroke="#000" stroke-width="3.7" stroke-linecap="round" stroke-miterlimit="10"/><circle r="8.6" transform="translate(246.9 339.5)" fill="none" stroke="#000" stroke-width="3.7" stroke-linecap="round" stroke-miterlimit="10"/><circle r="8.6" transform="translate(270.8 156.4)" fill="none" stroke="#000" stroke-width="3.7" stroke-linecap="round" stroke-miterlimit="10"/><circle r="8.6" transform="translate(270.8 285.4)" fill="none" stroke="#000" stroke-width="3.7" stroke-linecap="round" stroke-miterlimit="10"/><circle r="8.6" transform="translate(270.8 323.5)" fill="none" stroke="#000" stroke-width="3.7" stroke-linecap="round" stroke-miterlimit="10"/><line x1="127.4" y1="178.2" x2="127.4" y2="264.8" fill="none" stroke="#000" stroke-width="3.7" stroke-linecap="round" stroke-miterlimit="10"/><line x1="151.3" y1="178.2" x2="151.3" y2="264.8" fill="none" stroke="#000" stroke-width="3.7" stroke-linecap="round" stroke-miterlimit="10"/><line x1="175.2" y1="178.2" x2="175.2" y2="264.8" fill="none" stroke="#000" stroke-width="3.7" stroke-linecap="round" stroke-miterlimit="10"/><line x1="199.7" y1="178.2" x2="199.7" y2="264.8" fill="none" stroke="#000" stroke-width="3.7" stroke-linecap="round" stroke-miterlimit="10"/><line x1="199.7" y1="313.6" x2="199.7" y2="320.1" fill="none" stroke="#000" stroke-width="3.7" stroke-linecap="round" stroke-miterlimit="10"/><line x1="223" y1="178.2" x2="223" y2="264.8" fill="none" stroke="#000" stroke-width="3.7" stroke-linecap="round" stroke-miterlimit="10"/><line x1="223" y1="329.4" x2="223" y2="341.2" fill="none" stroke="#000" stroke-width="3.7" stroke-linecap="round" stroke-miterlimit="10"/><line x1="223" y1="296.1" x2="223" y2="303.6" fill="none" stroke="#000" stroke-width="3.7" stroke-linecap="round" stroke-miterlimit="10"/><line x1="223" y1="276" x2="223" y2="279.8" fill="none" stroke="#000" stroke-width="3.7" stroke-linecap="round" stroke-miterlimit="10"/><line x1="246.9" y1="178.2" x2="246.9" y2="264.8" fill="none" stroke="#000" stroke-width="3.7" stroke-linecap="round" stroke-miterlimit="10"/><line x1="270.8" y1="178.2" x2="270.8" y2="264.8" fill="none" stroke="#000" stroke-width="3.7" stroke-linecap="round" stroke-miterlimit="10"/><line x1="127.4" y1="352.9" x2="127.4" y2="402.4" fill="none" stroke="#000" stroke-width="3.7" stroke-linecap="round" stroke-miterlimit="10"/><line x1="151.3" y1="367.1" x2="151.3" y2="402.4" fill="none" stroke="#000" stroke-width="3.7" stroke-linecap="round" stroke-miterlimit="10"/><line x1="151.3" y1="313.6" x2="151.3" y2="319.6" fill="none" stroke="#000" stroke-width="3.7" stroke-linecap="round" stroke-miterlimit="10"/><line x1="151.3" y1="282.4" x2="151.3" y2="297" fill="none" stroke="#000" stroke-width="3.7" stroke-linecap="round" stroke-miterlimit="10"/><line x1="175.2" y1="360.4" x2="175.2" y2="402.4" fill="none" stroke="#000" stroke-width="3.7" stroke-linecap="round" stroke-miterlimit="10"/><line x1="175.2" y1="329.4" x2="175.2" y2="341.1" fill="none" stroke="#000" stroke-width="3.7" stroke-linecap="round" stroke-miterlimit="10"/><line x1="175.2" y1="276.8" x2="175.2" y2="301.9" fill="none" stroke="#000" stroke-width="3.7" stroke-linecap="round" stroke-miterlimit="10"/><line x1="199.7" y1="367.1" x2="199.7" y2="402.4" fill="none" stroke="#000" stroke-width="3.7" stroke-linecap="round" stroke-miterlimit="10"/><line x1="223" y1="357.8" x2="223" y2="402.4" fill="none" stroke="#000" stroke-width="3.7" stroke-linecap="round" stroke-miterlimit="10"/><line x1="246.9" y1="367.1" x2="246.9" y2="402.4" fill="none" stroke="#000" stroke-width="3.7" stroke-linecap="round" stroke-miterlimit="10"/><line x1="246.9" y1="313.6" x2="246.9" y2="320.7" fill="none" stroke="#000" stroke-width="3.7" stroke-linecap="round" stroke-miterlimit="10"/><line x1="270.8" y1="352.9" x2="270.8" y2="402.4" fill="none" stroke="#000" stroke-width="3.7" stroke-linecap="round" stroke-miterlimit="10"/></g></g><g id="eOW8qNHZtR143_to" transform="translate(197.796318,5.099991)"><g transform="translate(-197.796318,-275.099991)"><circle r="8.6" transform="translate(127.4 156.4)" fill="none" stroke="#000" stroke-width="3.7" stroke-linecap="round" stroke-miterlimit="10"/><circle r="8.6" transform="matrix(.382683-.92388 0.92388 0.382683 127.429083 285.515419)" fill="none" stroke="#000" stroke-width="3.7" stroke-linecap="round" stroke-miterlimit="10"/><circle r="8.6" transform="translate(127.4 322.2)" fill="none" stroke="#000" stroke-width="3.7" stroke-linecap="round" stroke-miterlimit="10"/><circle r="8.6" transform="translate(151.3 156.4)" fill="none" stroke="#000" stroke-width="3.7" stroke-linecap="round" stroke-miterlimit="10"/><circle r="8.6" transform="translate(151.3 339.5)" fill="none" stroke="#000" stroke-width="3.7" stroke-linecap="round" stroke-miterlimit="10"/><circle r="8.6" transform="translate(175.2 156.4)" fill="none" stroke="#000" stroke-width="3.7" stroke-linecap="round" stroke-miterlimit="10"/><circle r="8.6" transform="translate(199.1 156.4)" fill="none" stroke="#000" stroke-width="3.7" stroke-linecap="round" stroke-miterlimit="10"/><circle r="8.6" transform="translate(199.1 287.5)" fill="none" stroke="#000" stroke-width="3.7" stroke-linecap="round" stroke-miterlimit="10"/><circle r="8.6" transform="translate(199.1 339.5)" fill="none" stroke="#000" stroke-width="3.7" stroke-linecap="round" stroke-miterlimit="10"/><circle r="8.6" transform="translate(223 156.4)" fill="none" stroke="#000" stroke-width="3.7" stroke-linecap="round" stroke-miterlimit="10"/><circle r="8.6" transform="translate(246.9 156.4)" fill="none" stroke="#000" stroke-width="3.7" stroke-linecap="round" stroke-miterlimit="10"/><circle r="8.6" transform="translate(246.9 285.4)" fill="none" stroke="#000" stroke-width="3.7" stroke-linecap="round" stroke-miterlimit="10"/><circle r="8.6" transform="translate(246.9 339.5)" fill="none" stroke="#000" stroke-width="3.7" stroke-linecap="round" stroke-miterlimit="10"/><circle r="8.6" transform="translate(270.8 156.4)" fill="none" stroke="#000" stroke-width="3.7" stroke-linecap="round" stroke-miterlimit="10"/><circle r="8.6" transform="translate(270.8 285.4)" fill="none" stroke="#000" stroke-width="3.7" stroke-linecap="round" stroke-miterlimit="10"/><circle r="8.6" transform="translate(270.8 323.5)" fill="none" stroke="#000" stroke-width="3.7" stroke-linecap="round" stroke-miterlimit="10"/><line x1="127.4" y1="178.2" x2="127.4" y2="264.8" fill="none" stroke="#000" stroke-width="3.7" stroke-linecap="round" stroke-miterlimit="10"/><line x1="151.3" y1="178.2" x2="151.3" y2="264.8" fill="none" stroke="#000" stroke-width="3.7" stroke-linecap="round" stroke-miterlimit="10"/><line x1="175.2" y1="178.2" x2="175.2" y2="264.8" fill="none" stroke="#000" stroke-width="3.7" stroke-linecap="round" stroke-miterlimit="10"/><line x1="199.7" y1="178.2" x2="199.7" y2="264.8" fill="none" stroke="#000" stroke-width="3.7" stroke-linecap="round" stroke-miterlimit="10"/><line x1="199.7" y1="313.6" x2="199.7" y2="320.1" fill="none" stroke="#000" stroke-width="3.7" stroke-linecap="round" stroke-miterlimit="10"/><line x1="223" y1="178.2" x2="223" y2="264.8" fill="none" stroke="#000" stroke-width="3.7" stroke-linecap="round" stroke-miterlimit="10"/><line x1="223" y1="329.4" x2="223" y2="341.2" fill="none" stroke="#000" stroke-width="3.7" stroke-linecap="round" stroke-miterlimit="10"/><line x1="223" y1="296.1" x2="223" y2="303.6" fill="none" stroke="#000" stroke-width="3.7" stroke-linecap="round" stroke-miterlimit="10"/><line x1="223" y1="276" x2="223" y2="279.8" fill="none" stroke="#000" stroke-width="3.7" stroke-linecap="round" stroke-miterlimit="10"/><line x1="246.9" y1="178.2" x2="246.9" y2="264.8" fill="none" stroke="#000" stroke-width="3.7" stroke-linecap="round" stroke-miterlimit="10"/><line x1="270.8" y1="178.2" x2="270.8" y2="264.8" fill="none" stroke="#000" stroke-width="3.7" stroke-linecap="round" stroke-miterlimit="10"/><line x1="127.4" y1="352.9" x2="127.4" y2="402.4" fill="none" stroke="#000" stroke-width="3.7" stroke-linecap="round" stroke-miterlimit="10"/><line x1="151.3" y1="367.1" x2="151.3" y2="402.4" fill="none" stroke="#000" stroke-width="3.7" stroke-linecap="round" stroke-miterlimit="10"/><line x1="151.3" y1="313.6" x2="151.3" y2="319.6" fill="none" stroke="#000" stroke-width="3.7" stroke-linecap="round" stroke-miterlimit="10"/><line x1="151.3" y1="282.4" x2="151.3" y2="297" fill="none" stroke="#000" stroke-width="3.7" stroke-linecap="round" stroke-miterlimit="10"/><line x1="175.2" y1="360.4" x2="175.2" y2="402.4" fill="none" stroke="#000" stroke-width="3.7" stroke-linecap="round" stroke-miterlimit="10"/><line x1="175.2" y1="329.4" x2="175.2" y2="341.1" fill="none" stroke="#000" stroke-width="3.7" stroke-linecap="round" stroke-miterlimit="10"/><line x1="175.2" y1="276.8" x2="175.2" y2="301.9" fill="none" stroke="#000" stroke-width="3.7" stroke-linecap="round" stroke-miterlimit="10"/><line x1="199.7" y1="367.1" x2="199.7" y2="402.4" fill="none" stroke="#000" stroke-width="3.7" stroke-linecap="round" stroke-miterlimit="10"/><line x1="223" y1="357.8" x2="223" y2="402.4" fill="none" stroke="#000" stroke-width="3.7" stroke-linecap="round" stroke-miterlimit="10"/><line x1="246.9" y1="367.1" x2="246.9" y2="402.4" fill="none" stroke="#000" stroke-width="3.7" stroke-linecap="round" stroke-miterlimit="10"/><line x1="246.9" y1="313.6" x2="246.9" y2="320.7" fill="none" stroke="#000" stroke-width="3.7" stroke-linecap="round" stroke-miterlimit="10"/><line x1="270.8" y1="352.9" x2="270.8" y2="402.4" fill="none" stroke="#000" stroke-width="3.7" stroke-linecap="round" stroke-miterlimit="10"/></g></g><mask id="eOW8qNHZtR183" mask-type="luminance" x="-150%" y="-150%" height="400%" width="400%"><rect width="179.4" height="260.217155" rx="0" ry="0" transform="translate(110 139.782846)" fill="#d2dbed" stroke-width="0"/></mask></g><g mask="url(#eOW8qNHZtR191)"><g><line x1="190" y1="2.4" x2="190" y2="55.6" fill="none" stroke="#000" stroke-width="7.4" stroke-linecap="round" stroke-miterlimit="10"/><line x1="210.2" y1="2.4" x2="210.2" y2="55.6" fill="none" stroke="#000" stroke-width="7.4" stroke-linecap="round" stroke-miterlimit="10"/><line x1="110" y1="132.2" x2="289.4" y2="132.2" fill="none" stroke="#000" stroke-width="7.4" stroke-linecap="round" stroke-miterlimit="10"/><path d="M272.1,132.2c2-41.1-30.9-75.8-71.1-76.2-40.7-.4-74.6,34.6-72.6,76.2" fill="none" stroke="#000" stroke-width="7.4" stroke-linecap="round" stroke-miterlimit="10"/></g><mask id="eOW8qNHZtR191" mask-type="luminance" x="-150%" y="-150%" height="400%" width="400%"><rect width="400" height="400" rx="0" ry="0" fill="#d2dbed" stroke-width="0"/></mask></g></svg>
